# xmcd
#
# Track frame offsets: 
#        150
#        14775
#        27345
#        43050
#        53700
#        66585
#        85245
#        100605
#        112095
#        123225
#
# Disc length: 1766 seconds
#
# Revision: 0
# Processed by: cddbd v1.5.2PL0 Copyright (c) Steve Scherf et al.
# Submitted via: ExactAudioCopy v1.0b1
#
DISCID=8906e40a
DTITLE=Ray Price and The Cherokee Cowboys - Reunited
DYEAR=1977
DGENRE=Country
TTITLE0=Different Kind Of Flower
TTITLE1=My Shoes Keep Walking Back To You
TTITLE2=Storms Never Last
TTITLE3=We Go Back
TTITLE4=Pick Me Up On Your Way Down
TTITLE5=I'll Be Your Baby Tonight
TTITLE6=The Mornin' After My Baby Let Me Down
TTITLE7=I'll Be There (If You Ever Want Me)
TTITLE8=Don't Let The Stars Get In Your Eyes
TTITLE9=You Done Me Wrong
EXTD=
EXTT0=
EXTT1=
EXTT2=
EXTT3=
EXTT4=
EXTT5=
EXTT6=
EXTT7=
EXTT8=
EXTT9=
PLAYORDER=
